<svg width="141" height="100" viewBox="0 0 141 100" fill="none" xmlns="http://www.w3.org/2000/svg">
<g clip-path="url(#clip0_3191_16781)">
<path d="M27.0967 49.8548C28.3176 51.6802 29.8978 53.2321 31.7378 54.4127L59.1245 72.3275C59.4526 72.5421 59.8926 72.4496 60.1065 72.1211L77.9542 44.7068C79.1502 42.8847 79.9601 40.8308 80.3334 38.6735C80.7067 36.5163 80.6353 34.3022 80.1236 32.1697C79.6119 30.0372 78.671 28.0324 77.3597 26.2806C76.0484 24.5288 74.395 23.0678 72.503 21.989C70.611 20.9102 68.521 20.2368 66.364 20.011C64.207 19.7853 62.0292 20.0119 59.9672 20.6769C57.9051 21.3418 56.003 22.4307 54.38 23.8754C53.1317 24.9865 51.8559 26.7285 50.955 28.2996C50.73 28.692 50.2044 28.8011 49.8418 28.5305C48.3848 27.4434 46.515 26.3511 44.9196 25.828C42.8484 25.1489 40.6626 24.9102 38.5 25.1268C36.3374 25.3434 34.2447 26.0108 32.3539 27.0868C30.463 28.1628 28.8149 29.6241 27.5132 31.3788C26.2116 33.1335 25.2847 35.1436 24.7908 37.2824C24.2969 39.4212 24.2469 41.6424 24.6437 43.8061C25.0406 45.9699 25.8758 48.0293 27.0967 49.8548Z" fill="url(#paint0_linear_3191_16781)" stroke="url(#paint1_linear_3191_16781)" stroke-width="3.54368" stroke-linecap="round" stroke-linejoin="round"/>
</g>
<g clip-path="url(#clip1_3191_16781)">
<path d="M58.133 40.0493C58.4025 42.9045 59.2541 45.6705 60.6358 48.1732L78.9723 82.0512C79.7413 83.4719 81.5176 83.9985 82.9367 83.2264L116.762 64.8232C116.763 64.8226 116.764 64.8219 116.765 64.8213C119.275 63.4673 121.483 61.6075 123.252 59.3595C125.022 57.1104 126.316 54.5202 127.052 51.7511C127.788 48.9819 127.952 46.092 127.533 43.2619C127.113 40.4317 126.119 37.7213 124.611 35.3008C123.103 32.8802 121.114 30.8018 118.766 29.1969C116.419 27.5919 113.765 26.4956 110.971 25.9771C108.177 25.4586 105.304 25.5293 102.533 26.1838C100.734 26.6086 98.7368 27.4884 97.0188 28.4437C96.1039 26.6941 94.9121 24.855 93.6341 23.5065C91.6693 21.4333 89.2972 19.7953 86.6666 18.6969C84.0361 17.5984 81.2055 17.0637 78.3536 17.1263C75.5017 17.1889 72.6915 17.8473 70.0997 19.0585C67.5079 20.2696 65.1909 22.0072 63.2934 24.1605C61.3959 26.3137 59.9584 28.8368 59.0705 31.5706C58.1827 34.3044 57.8633 37.1911 58.133 40.0493Z" fill="url(#paint2_linear_3191_16781)" stroke="white" stroke-width="4.17229" stroke-linecap="round" stroke-linejoin="round"/>
</g>
<defs>
<linearGradient id="paint0_linear_3191_16781" x1="47.2747" y1="13.7073" x2="61.7829" y2="82.6521" gradientUnits="userSpaceOnUse">
<stop offset="0.0306935" stop-color="#EE837B"/>
<stop offset="0.632186" stop-color="#F95A82"/>
<stop offset="1" stop-color="#EA3C7D"/>
</linearGradient>
<linearGradient id="paint1_linear_3191_16781" x1="47.2747" y1="13.7073" x2="61.7829" y2="82.6521" gradientUnits="userSpaceOnUse">
<stop offset="0.0306935" stop-color="#EE837B"/>
<stop offset="0.632186" stop-color="#F95A82"/>
<stop offset="1" stop-color="#EA3C7D"/>
</linearGradient>
<linearGradient id="paint2_linear_3191_16781" x1="101.344" y1="13.7045" x2="77.7818" y2="93.2407" gradientUnits="userSpaceOnUse">
<stop offset="0.0306935" stop-color="#EE837B"/>
<stop offset="0.632186" stop-color="#F95A82"/>
<stop offset="1" stop-color="#EA3C7D"/>
</linearGradient>
<clipPath id="clip0_3191_16781">
<rect width="68.0386" height="68.0386" fill="white" transform="translate(13.5596 18.695) rotate(-11.8835)"/>
</clipPath>
<clipPath id="clip1_3191_16781">
<rect width="80.108" height="80.108" fill="white" transform="translate(63.6289) rotate(16.5015)"/>
</clipPath>
</defs>
</svg>
